<?xml version="1.0" encoding="UTF-8" standalone="no"?>
<!DOCTYPE svg PUBLIC "-//W3C//DTD SVG 1.1//EN"
 "http://www.w3.org/Graphics/SVG/1.1/DTD/svg11.dtd">
<!-- Generated by graphviz version 3.0.0 (20220226.1711)
 -->
<!-- Title: ExpTree Pages: 1 -->
<svg width="490pt" height="404pt"
 viewBox="0.00 0.00 490.00 404.00" xmlns="http://www.w3.org/2000/svg" xmlns:xlink="http://www.w3.org/1999/xlink">
<g id="graph0" class="graph" transform="scale(1 1) rotate(0) translate(4 400)">
<title>ExpTree</title>
<polygon fill="white" stroke="transparent" points="-4,4 -4,-400 486,-400 486,4 -4,4"/>
<!-- divide -->
<g id="node1" class="node">
<title>divide</title>
<ellipse fill="none" stroke="black" cx="347" cy="-378" rx="27" ry="18"/>
<text text-anchor="middle" x="347" y="-374.3" font-family="Times,serif" font-size="14.00">/</text>
</g>
<!-- add -->
<g id="node2" class="node">
<title>add</title>
<ellipse fill="none" stroke="black" cx="311" cy="-306" rx="27" ry="18"/>
<text text-anchor="middle" x="311" y="-302.3" font-family="Times,serif" font-size="14.00">+</text>
</g>
<!-- divide&#45;&gt;add -->
<g id="edge1" class="edge">
<title>divide&#45;&gt;add</title>
<path fill="none" stroke="black" d="M338.65,-360.76C334.29,-352.28 328.85,-341.71 323.96,-332.2"/>
<polygon fill="black" stroke="black" points="326.99,-330.44 319.3,-323.15 320.77,-333.64 326.99,-330.44"/>
</g>
<!-- subtract -->
<g id="node3" class="node">
<title>subtract</title>
<ellipse fill="none" stroke="black" cx="383" cy="-306" rx="27" ry="18"/>
<text text-anchor="middle" x="383" y="-302.3" font-family="Times,serif" font-size="14.00">&#45;</text>
</g>
<!-- divide&#45;&gt;subtract -->
<g id="edge2" class="edge">
<title>divide&#45;&gt;subtract</title>
<path fill="none" stroke="black" d="M355.35,-360.76C359.71,-352.28 365.15,-341.71 370.04,-332.2"/>
<polygon fill="black" stroke="black" points="373.23,-333.64 374.7,-323.15 367.01,-330.44 373.23,-333.64"/>
</g>
<!-- subtract2 -->
<g id="node4" class="node">
<title>subtract2</title>
<ellipse fill="none" stroke="black" cx="229" cy="-234" rx="27" ry="18"/>
<text text-anchor="middle" x="229" y="-230.3" font-family="Times,serif" font-size="14.00">&#45;</text>
</g>
<!-- add&#45;&gt;subtract2 -->
<g id="edge3" class="edge">
<title>add&#45;&gt;subtract2</title>
<path fill="none" stroke="black" d="M294.8,-291.17C282.82,-280.94 266.31,-266.85 252.82,-255.34"/>
<polygon fill="black" stroke="black" points="254.77,-252.39 244.89,-248.56 250.22,-257.72 254.77,-252.39"/>
</g>
<!-- exp -->
<g id="node7" class="node">
<title>exp</title>
<ellipse fill="none" stroke="black" cx="311" cy="-234" rx="27" ry="18"/>
<text text-anchor="middle" x="311" y="-230.3" font-family="Times,serif" font-size="14.00">^</text>
</g>
<!-- add&#45;&gt;exp -->
<g id="edge4" class="edge">
<title>add&#45;&gt;exp</title>
<path fill="none" stroke="black" d="M311,-287.7C311,-279.98 311,-270.71 311,-262.11"/>
<polygon fill="black" stroke="black" points="314.5,-262.1 311,-252.1 307.5,-262.1 314.5,-262.1"/>
</g>
<!-- n3 -->
<g id="node14" class="node">
<title>n3</title>
<polygon fill="none" stroke="black" points="410,-252 356,-252 356,-216 410,-216 410,-252"/>
<text text-anchor="middle" x="383" y="-230.3" font-family="Times,serif" font-size="14.00">3</text>
</g>
<!-- subtract&#45;&gt;n3 -->
<g id="edge13" class="edge">
<title>subtract&#45;&gt;n3</title>
<path fill="none" stroke="black" d="M383,-287.7C383,-279.98 383,-270.71 383,-262.11"/>
<polygon fill="black" stroke="black" points="386.5,-262.1 383,-252.1 379.5,-262.1 386.5,-262.1"/>
</g>
<!-- n5 -->
<g id="node16" class="node">
<title>n5</title>
<polygon fill="none" stroke="black" points="482,-252 428,-252 428,-216 482,-216 482,-252"/>
<text text-anchor="middle" x="455" y="-230.3" font-family="Times,serif" font-size="14.00">5</text>
</g>
<!-- subtract&#45;&gt;n5 -->
<g id="edge14" class="edge">
<title>subtract&#45;&gt;n5</title>
<path fill="none" stroke="black" d="M397.57,-290.83C406.92,-281.75 419.3,-269.71 430.17,-259.14"/>
<polygon fill="black" stroke="black" points="432.67,-261.59 437.4,-252.11 427.79,-256.57 432.67,-261.59"/>
</g>
<!-- multiply -->
<g id="node5" class="node">
<title>multiply</title>
<ellipse fill="none" stroke="black" cx="146" cy="-162" rx="27" ry="18"/>
<text text-anchor="middle" x="146" y="-158.3" font-family="Times,serif" font-size="14.00">*</text>
</g>
<!-- subtract2&#45;&gt;multiply -->
<g id="edge5" class="edge">
<title>subtract2&#45;&gt;multiply</title>
<path fill="none" stroke="black" d="M212.6,-219.17C200.36,-208.85 183.45,-194.58 169.73,-183.01"/>
<polygon fill="black" stroke="black" points="171.98,-180.33 162.08,-176.56 167.47,-185.69 171.98,-180.33"/>
</g>
<!-- exp2 -->
<g id="node8" class="node">
<title>exp2</title>
<ellipse fill="none" stroke="black" cx="229" cy="-162" rx="27" ry="18"/>
<text text-anchor="middle" x="229" y="-158.3" font-family="Times,serif" font-size="14.00">^</text>
</g>
<!-- subtract2&#45;&gt;exp2 -->
<g id="edge6" class="edge">
<title>subtract2&#45;&gt;exp2</title>
<path fill="none" stroke="black" d="M229,-215.7C229,-207.98 229,-198.71 229,-190.11"/>
<polygon fill="black" stroke="black" points="232.5,-190.1 229,-180.1 225.5,-190.1 232.5,-190.1"/>
</g>
<!-- multiply2 -->
<g id="node6" class="node">
<title>multiply2</title>
<ellipse fill="none" stroke="black" cx="70" cy="-90" rx="27" ry="18"/>
<text text-anchor="middle" x="70" y="-86.3" font-family="Times,serif" font-size="14.00">*</text>
</g>
<!-- multiply&#45;&gt;multiply2 -->
<g id="edge9" class="edge">
<title>multiply&#45;&gt;multiply2</title>
<path fill="none" stroke="black" d="M130.62,-146.83C119.8,-136.87 105.14,-123.37 92.95,-112.14"/>
<polygon fill="black" stroke="black" points="95.08,-109.34 85.36,-105.14 90.34,-114.49 95.08,-109.34"/>
</g>
<!-- op2 -->
<g id="node10" class="node">
<title>op2</title>
<polygon fill="none" stroke="black" points="177,-108 115,-108 115,-72 177,-72 177,-108"/>
<text text-anchor="middle" x="146" y="-86.3" font-family="Times,serif" font-size="14.00">${num}</text>
</g>
<!-- multiply&#45;&gt;op2 -->
<g id="edge10" class="edge">
<title>multiply&#45;&gt;op2</title>
<path fill="none" stroke="black" d="M146,-143.7C146,-135.98 146,-126.71 146,-118.11"/>
<polygon fill="black" stroke="black" points="149.5,-118.1 146,-108.1 142.5,-118.1 149.5,-118.1"/>
</g>
<!-- op3 -->
<g id="node11" class="node">
<title>op3</title>
<polygon fill="none" stroke="black" points="64,-36 0,-36 0,0 64,0 64,-36"/>
<text text-anchor="middle" x="32" y="-14.3" font-family="Times,serif" font-size="14.00">${price}</text>
</g>
<!-- multiply2&#45;&gt;op3 -->
<g id="edge11" class="edge">
<title>multiply2&#45;&gt;op3</title>
<path fill="none" stroke="black" d="M61.19,-72.76C56.71,-64.53 51.17,-54.32 46.12,-45.02"/>
<polygon fill="black" stroke="black" points="49.14,-43.24 41.3,-36.12 42.99,-46.58 49.14,-43.24"/>
</g>
<!-- n4 -->
<g id="node15" class="node">
<title>n4</title>
<polygon fill="none" stroke="black" points="136,-36 82,-36 82,0 136,0 136,-36"/>
<text text-anchor="middle" x="109" y="-14.3" font-family="Times,serif" font-size="14.00">4</text>
</g>
<!-- multiply2&#45;&gt;n4 -->
<g id="edge12" class="edge">
<title>multiply2&#45;&gt;n4</title>
<path fill="none" stroke="black" d="M79.05,-72.76C83.64,-64.53 89.32,-54.32 94.51,-45.02"/>
<polygon fill="black" stroke="black" points="97.65,-46.56 99.46,-36.12 91.53,-43.16 97.65,-46.56"/>
</g>
<!-- op4 -->
<g id="node12" class="node">
<title>op4</title>
<polygon fill="none" stroke="black" points="348,-180 274,-180 274,-144 348,-144 348,-180"/>
<text text-anchor="middle" x="311" y="-158.3" font-family="Times,serif" font-size="14.00">${weight}</text>
</g>
<!-- exp&#45;&gt;op4 -->
<g id="edge15" class="edge">
<title>exp&#45;&gt;op4</title>
<path fill="none" stroke="black" d="M311,-215.7C311,-207.98 311,-198.71 311,-190.11"/>
<polygon fill="black" stroke="black" points="314.5,-190.1 311,-180.1 307.5,-190.1 314.5,-190.1"/>
</g>
<!-- n7 -->
<g id="node17" class="node">
<title>n7</title>
<polygon fill="none" stroke="black" points="420,-180 366,-180 366,-144 420,-144 420,-180"/>
<text text-anchor="middle" x="393" y="-158.3" font-family="Times,serif" font-size="14.00">7</text>
</g>
<!-- exp&#45;&gt;n7 -->
<g id="edge16" class="edge">
<title>exp&#45;&gt;n7</title>
<path fill="none" stroke="black" d="M327.2,-219.17C338.1,-209.87 352.75,-197.36 365.45,-186.52"/>
<polygon fill="black" stroke="black" points="367.73,-189.17 373.06,-180.02 363.19,-183.85 367.73,-189.17"/>
</g>
<!-- op1 -->
<g id="node9" class="node">
<title>op1</title>
<polygon fill="none" stroke="black" points="262.5,-108 195.5,-108 195.5,-72 262.5,-72 262.5,-108"/>
<text text-anchor="middle" x="229" y="-86.3" font-family="Times,serif" font-size="14.00">${count}</text>
</g>
<!-- exp2&#45;&gt;op1 -->
<g id="edge7" class="edge">
<title>exp2&#45;&gt;op1</title>
<path fill="none" stroke="black" d="M229,-143.7C229,-135.98 229,-126.71 229,-118.11"/>
<polygon fill="black" stroke="black" points="232.5,-118.1 229,-108.1 225.5,-118.1 232.5,-118.1"/>
</g>
<!-- n2 -->
<g id="node13" class="node">
<title>n2</title>
<polygon fill="none" stroke="black" points="335,-108 281,-108 281,-72 335,-72 335,-108"/>
<text text-anchor="middle" x="308" y="-86.3" font-family="Times,serif" font-size="14.00">2</text>
</g>
<!-- exp2&#45;&gt;n2 -->
<g id="edge8" class="edge">
<title>exp2&#45;&gt;n2</title>
<path fill="none" stroke="black" d="M244.61,-147.17C255.01,-137.95 268.95,-125.6 281.11,-114.82"/>
<polygon fill="black" stroke="black" points="283.63,-117.27 288.79,-108.02 278.99,-112.03 283.63,-117.27"/>
</g>
</g>
</svg>
