<?xml version="1.0" encoding="UTF-8" standalone="no"?>
<!DOCTYPE svg PUBLIC "-//W3C//DTD SVG 1.1//EN"
 "http://www.w3.org/Graphics/SVG/1.1/DTD/svg11.dtd">
<!-- Generated by graphviz version 3.0.0 (20220226.1711)
 -->
<!-- Title: tree Pages: 1 -->
<svg width="806pt" height="260pt"
 viewBox="0.00 0.00 805.64 260.00" xmlns="http://www.w3.org/2000/svg" xmlns:xlink="http://www.w3.org/1999/xlink">
<g id="graph0" class="graph" transform="scale(1 1) rotate(0) translate(4 256)">
<title>tree</title>
<polygon fill="white" stroke="transparent" points="-4,4 -4,-256 801.64,-256 801.64,4 -4,4"/>
<!-- root -->
<g id="node1" class="node">
<title>root</title>
<ellipse fill="none" stroke="black" cx="224.65" cy="-234" rx="38.99" ry="18"/>
<text text-anchor="middle" x="224.65" y="-230.3" font-family="Times,serif" font-size="14.00">$:object</text>
</g>
<!-- name -->
<g id="node2" class="node">
<title>name</title>
<ellipse fill="lightgrey" stroke="black" cx="52.65" cy="-162" rx="52.79" ry="18"/>
<text text-anchor="middle" x="52.65" y="-158.3" font-family="Times,serif" font-size="14.00">name:string</text>
</g>
<!-- root&#45;&gt;name -->
<g id="edge1" class="edge">
<title>root&#45;&gt;name</title>
<path fill="none" stroke="black" d="M196.24,-221.44C168.57,-210.18 126.18,-192.93 94.62,-180.08"/>
<polygon fill="black" stroke="black" points="95.78,-176.78 85.2,-176.25 93.14,-183.26 95.78,-176.78"/>
</g>
<!-- views -->
<g id="node3" class="node">
<title>views</title>
<ellipse fill="lightgrey" stroke="black" cx="166.65" cy="-162" rx="42.79" ry="18"/>
<text text-anchor="middle" x="166.65" y="-158.3" font-family="Times,serif" font-size="14.00">views:int</text>
</g>
<!-- root&#45;&gt;views -->
<g id="edge2" class="edge">
<title>root&#45;&gt;views</title>
<path fill="none" stroke="black" d="M211.19,-216.76C203.87,-207.93 194.68,-196.83 186.54,-187.01"/>
<polygon fill="black" stroke="black" points="189.1,-184.61 180.02,-179.15 183.71,-189.08 189.1,-184.61"/>
</g>
<!-- friends -->
<g id="node4" class="node">
<title>friends</title>
<ellipse fill="lightgrey" stroke="black" cx="283.65" cy="-162" rx="55.79" ry="18"/>
<text text-anchor="middle" x="283.65" y="-158.3" font-family="Times,serif" font-size="14.00">friends:array</text>
</g>
<!-- root&#45;&gt;friends -->
<g id="edge3" class="edge">
<title>root&#45;&gt;friends</title>
<path fill="none" stroke="black" d="M238.33,-216.76C245.67,-208.06 254.86,-197.15 263.05,-187.43"/>
<polygon fill="black" stroke="black" points="265.86,-189.54 269.63,-179.63 260.5,-185.02 265.86,-189.54"/>
</g>
<!-- links -->
<g id="node5" class="node">
<title>links</title>
<ellipse fill="lightgrey" stroke="black" cx="502.65" cy="-162" rx="51.99" ry="18"/>
<text text-anchor="middle" x="502.65" y="-158.3" font-family="Times,serif" font-size="14.00">links:object</text>
</g>
<!-- root&#45;&gt;links -->
<g id="edge4" class="edge">
<title>root&#45;&gt;links</title>
<path fill="none" stroke="black" d="M258.18,-224.56C306.41,-212.41 395.72,-189.92 452.01,-175.75"/>
<polygon fill="black" stroke="black" points="452.93,-179.13 461.78,-173.29 451.23,-172.34 452.93,-179.13"/>
</g>
<!-- friends_0 -->
<g id="node10" class="node">
<title>friends_0</title>
<polygon fill="lavender" stroke="black" points="214.15,-108 145.15,-108 145.15,-72 214.15,-72 214.15,-108"/>
<text text-anchor="middle" x="179.65" y="-86.3" font-family="Times,serif" font-size="14.00">[0]:object</text>
</g>
<!-- friends&#45;&gt;friends_0 -->
<g id="edge5" class="edge">
<title>friends&#45;&gt;friends_0</title>
<path fill="none" stroke="black" d="M260.56,-145.46C246.86,-136.24 229.22,-124.37 213.91,-114.06"/>
<polygon fill="black" stroke="black" points="215.47,-110.89 205.22,-108.21 211.56,-116.7 215.47,-110.89"/>
</g>
<!-- friends_1 -->
<g id="node11" class="node">
<title>friends_1</title>
<polygon fill="lavender" stroke="black" points="318.15,-108 249.15,-108 249.15,-72 318.15,-72 318.15,-108"/>
<text text-anchor="middle" x="283.65" y="-86.3" font-family="Times,serif" font-size="14.00">[1]:object</text>
</g>
<!-- friends&#45;&gt;friends_1 -->
<g id="edge6" class="edge">
<title>friends&#45;&gt;friends_1</title>
<path fill="none" stroke="black" d="M283.65,-143.7C283.65,-135.98 283.65,-126.71 283.65,-118.11"/>
<polygon fill="black" stroke="black" points="287.15,-118.1 283.65,-108.1 280.15,-118.1 287.15,-118.1"/>
</g>
<!-- links_name -->
<g id="node6" class="node">
<title>links_name</title>
<ellipse fill="ivory" stroke="black" cx="388.65" cy="-90" rx="52.79" ry="18"/>
<text text-anchor="middle" x="388.65" y="-86.3" font-family="Times,serif" font-size="14.00">name:string</text>
</g>
<!-- links&#45;&gt;links_name -->
<g id="edge11" class="edge">
<title>links&#45;&gt;links_name</title>
<path fill="none" stroke="black" d="M478.19,-145.98C461.81,-135.93 440.04,-122.56 422.07,-111.52"/>
<polygon fill="black" stroke="black" points="423.41,-108.24 413.06,-105.99 419.75,-114.21 423.41,-108.24"/>
</g>
<!-- links_views -->
<g id="node7" class="node">
<title>links_views</title>
<ellipse fill="ivory" stroke="black" cx="502.65" cy="-90" rx="42.79" ry="18"/>
<text text-anchor="middle" x="502.65" y="-86.3" font-family="Times,serif" font-size="14.00">views:int</text>
</g>
<!-- links&#45;&gt;links_views -->
<g id="edge12" class="edge">
<title>links&#45;&gt;links_views</title>
<path fill="none" stroke="black" d="M502.65,-143.7C502.65,-135.98 502.65,-126.71 502.65,-118.11"/>
<polygon fill="black" stroke="black" points="506.15,-118.1 502.65,-108.1 499.15,-118.1 506.15,-118.1"/>
</g>
<!-- links_friends -->
<g id="node8" class="node">
<title>links_friends</title>
<ellipse fill="ivory" stroke="black" cx="619.65" cy="-90" rx="55.79" ry="18"/>
<text text-anchor="middle" x="619.65" y="-86.3" font-family="Times,serif" font-size="14.00">friends:array</text>
</g>
<!-- links&#45;&gt;links_friends -->
<g id="edge13" class="edge">
<title>links&#45;&gt;links_friends</title>
<path fill="none" stroke="black" d="M527.46,-146.15C544.29,-136.08 566.77,-122.64 585.31,-111.54"/>
<polygon fill="black" stroke="black" points="587.28,-114.45 594.06,-106.31 583.68,-108.44 587.28,-114.45"/>
</g>
<!-- links_links -->
<g id="node9" class="node">
<title>links_links</title>
<ellipse fill="ivory" stroke="black" cx="745.65" cy="-90" rx="51.99" ry="18"/>
<text text-anchor="middle" x="745.65" y="-86.3" font-family="Times,serif" font-size="14.00">links:object</text>
</g>
<!-- links&#45;&gt;links_links -->
<g id="edge14" class="edge">
<title>links&#45;&gt;links_links</title>
<path fill="none" stroke="black" d="M541.42,-149.83C583.74,-137.64 651.56,-118.1 697.31,-104.92"/>
<polygon fill="black" stroke="black" points="698.37,-108.26 707.01,-102.13 696.43,-101.53 698.37,-108.26"/>
</g>
<!-- f0_id -->
<g id="node12" class="node">
<title>f0_id</title>
<ellipse fill="none" stroke="black" cx="75.65" cy="-18" rx="29.5" ry="18"/>
<text text-anchor="middle" x="75.65" y="-14.3" font-family="Times,serif" font-size="14.00">id:int</text>
</g>
<!-- friends_0&#45;&gt;f0_id -->
<g id="edge7" class="edge">
<title>friends_0&#45;&gt;f0_id</title>
<path fill="none" stroke="black" d="M154.2,-71.88C138.68,-61.43 118.83,-48.07 102.97,-37.39"/>
<polygon fill="black" stroke="black" points="104.88,-34.46 94.63,-31.78 100.97,-40.26 104.88,-34.46"/>
</g>
<!-- f0_gender -->
<g id="node13" class="node">
<title>f0_gender</title>
<ellipse fill="none" stroke="black" cx="179.65" cy="-18" rx="57.39" ry="18"/>
<text text-anchor="middle" x="179.65" y="-14.3" font-family="Times,serif" font-size="14.00">gender:string</text>
</g>
<!-- friends_0&#45;&gt;f0_gender -->
<g id="edge8" class="edge">
<title>friends_0&#45;&gt;f0_gender</title>
<path fill="none" stroke="black" d="M179.65,-71.7C179.65,-63.98 179.65,-54.71 179.65,-46.11"/>
<polygon fill="black" stroke="black" points="183.15,-46.1 179.65,-36.1 176.15,-46.1 183.15,-46.1"/>
</g>
<!-- f1_id -->
<g id="node14" class="node">
<title>f1_id</title>
<ellipse fill="none" stroke="black" cx="283.65" cy="-18" rx="29.5" ry="18"/>
<text text-anchor="middle" x="283.65" y="-14.3" font-family="Times,serif" font-size="14.00">id:int</text>
</g>
<!-- friends_1&#45;&gt;f1_id -->
<g id="edge9" class="edge">
<title>friends_1&#45;&gt;f1_id</title>
<path fill="none" stroke="black" d="M283.65,-71.7C283.65,-63.98 283.65,-54.71 283.65,-46.11"/>
<polygon fill="black" stroke="black" points="287.15,-46.1 283.65,-36.1 280.15,-46.1 287.15,-46.1"/>
</g>
<!-- f1_gender -->
<g id="node15" class="node">
<title>f1_gender</title>
<ellipse fill="none" stroke="black" cx="387.65" cy="-18" rx="57.39" ry="18"/>
<text text-anchor="middle" x="387.65" y="-14.3" font-family="Times,serif" font-size="14.00">gender:string</text>
</g>
<!-- friends_1&#45;&gt;f1_gender -->
<g id="edge10" class="edge">
<title>friends_1&#45;&gt;f1_gender</title>
<path fill="none" stroke="black" d="M309.09,-71.88C323.26,-62.33 341.04,-50.37 356.09,-40.24"/>
<polygon fill="black" stroke="black" points="358.25,-43 364.6,-34.51 354.35,-37.19 358.25,-43"/>
</g>
</g>
</svg>
