<?xml version="1.0" encoding="UTF-8" standalone="no"?>
<!DOCTYPE svg PUBLIC "-//W3C//DTD SVG 1.1//EN"
 "http://www.w3.org/Graphics/SVG/1.1/DTD/svg11.dtd">
<!-- Generated by graphviz version 3.0.0 (20220226.1711)
 -->
<!-- Title: ENV Pages: 1 -->
<svg width="453pt" height="188pt"
 viewBox="0.00 0.00 452.50 188.00" xmlns="http://www.w3.org/2000/svg" xmlns:xlink="http://www.w3.org/1999/xlink">
<g id="graph0" class="graph" transform="scale(1 1) rotate(0) translate(4 184)">
<title>ENV</title>
<polygon fill="white" stroke="transparent" points="-4,4 -4,-184 448.5,-184 448.5,4 -4,4"/>
<!-- offline -->
<g id="node1" class="node">
<title>offline</title>
<polygon fill="none" stroke="black" points="127.9,-144.05 129.81,-144.15 131.71,-144.3 133.58,-144.49 135.42,-144.74 137.21,-145.03 138.95,-145.36 140.64,-145.75 142.26,-146.18 143.81,-146.65 145.29,-147.16 146.7,-147.71 148.01,-148.31 149.24,-148.94 150.38,-149.61 151.42,-150.31 152.36,-151.04 153.2,-151.8 153.95,-152.59 154.59,-153.41 155.12,-154.25 155.56,-155.11 155.89,-155.99 156.13,-156.89 156.26,-157.8 156.29,-158.72 156.23,-159.65 156.08,-160.59 155.84,-161.53 155.52,-162.47 155.11,-163.41 154.62,-164.35 154.06,-165.28 153.43,-166.2 152.73,-167.11 151.97,-168.01 151.15,-168.89 150.28,-169.75 149.36,-170.59 148.39,-171.41 147.38,-172.2 146.34,-172.96 145.26,-173.69 144.15,-174.39 143.01,-175.06 141.85,-175.69 140.67,-176.29 139.47,-176.84 138.26,-177.35 137.03,-177.82 135.79,-178.25 134.54,-178.64 133.28,-178.97 132.02,-179.26 130.75,-179.51 129.48,-179.7 128.2,-179.85 126.92,-179.95 125.64,-180 124.36,-180 123.08,-179.95 121.8,-179.85 120.52,-179.7 119.25,-179.51 117.98,-179.26 116.72,-178.97 115.46,-178.64 114.21,-178.25 112.97,-177.82 111.74,-177.35 110.53,-176.84 109.33,-176.29 108.15,-175.69 106.99,-175.06 105.85,-174.39 104.74,-173.69 103.66,-172.96 102.62,-172.2 101.61,-171.41 100.64,-170.59 99.72,-169.75 98.85,-168.89 98.03,-168.01 97.27,-167.11 96.57,-166.2 95.94,-165.28 95.38,-164.35 94.89,-163.41 94.48,-162.47 94.16,-161.53 93.92,-160.59 93.77,-159.65 93.71,-158.72 93.74,-157.8 93.87,-156.89 94.11,-155.99 94.44,-155.11 94.88,-154.25 95.41,-153.41 96.05,-152.59 96.8,-151.8 97.64,-151.04 98.58,-150.31 99.62,-149.61 100.76,-148.94 101.99,-148.31 103.3,-147.71 104.71,-147.16 106.19,-146.65 107.74,-146.18 109.36,-145.75 111.05,-145.36 112.79,-145.03 114.58,-144.74 116.42,-144.49 118.29,-144.3 120.19,-144.15 122.1,-144.05 124.03,-144 125.97,-144 127.9,-144.05"/>
<text text-anchor="middle" x="125" y="-158.3" font-family="Times,serif" font-size="14.00">线下</text>
</g>
<!-- dev -->
<g id="node3" class="node">
<title>dev</title>
<ellipse fill="none" stroke="black" cx="64" cy="-90" rx="29.5" ry="18"/>
<text text-anchor="middle" x="64" y="-86.3" font-family="Times,serif" font-size="14.00">开发</text>
</g>
<!-- offline&#45;&#45;dev -->
<g id="edge1" class="edge">
<title>offline&#45;&#45;dev</title>
<path fill="none" stroke="black" d="M111.16,-145.12C101.03,-133.5 87.38,-117.83 77.37,-106.34"/>
</g>
<!-- test -->
<g id="node4" class="node">
<title>test</title>
<ellipse fill="none" stroke="black" cx="163" cy="-90" rx="29.5" ry="18"/>
<text text-anchor="middle" x="163" y="-86.3" font-family="Times,serif" font-size="14.00">测试</text>
</g>
<!-- offline&#45;&#45;test -->
<g id="edge2" class="edge">
<title>offline&#45;&#45;test</title>
<path fill="none" stroke="black" d="M134.01,-144.41C140.06,-133.25 148.02,-118.6 154.06,-107.47"/>
</g>
<!-- online -->
<g id="node2" class="node">
<title>online</title>
<polygon fill="none" stroke="black" points="305.9,-144.05 307.81,-144.15 309.71,-144.3 311.58,-144.49 313.42,-144.74 315.21,-145.03 316.95,-145.36 318.64,-145.75 320.26,-146.18 321.81,-146.65 323.29,-147.16 324.7,-147.71 326.01,-148.31 327.24,-148.94 328.38,-149.61 329.42,-150.31 330.36,-151.04 331.2,-151.8 331.95,-152.59 332.59,-153.41 333.12,-154.25 333.56,-155.11 333.89,-155.99 334.13,-156.89 334.26,-157.8 334.29,-158.72 334.23,-159.65 334.08,-160.59 333.84,-161.53 333.52,-162.47 333.11,-163.41 332.62,-164.35 332.06,-165.28 331.43,-166.2 330.73,-167.11 329.97,-168.01 329.15,-168.89 328.28,-169.75 327.36,-170.59 326.39,-171.41 325.38,-172.2 324.34,-172.96 323.26,-173.69 322.15,-174.39 321.01,-175.06 319.85,-175.69 318.67,-176.29 317.47,-176.84 316.26,-177.35 315.03,-177.82 313.79,-178.25 312.54,-178.64 311.28,-178.97 310.02,-179.26 308.75,-179.51 307.48,-179.7 306.2,-179.85 304.92,-179.95 303.64,-180 302.36,-180 301.08,-179.95 299.8,-179.85 298.52,-179.7 297.25,-179.51 295.98,-179.26 294.72,-178.97 293.46,-178.64 292.21,-178.25 290.97,-177.82 289.74,-177.35 288.53,-176.84 287.33,-176.29 286.15,-175.69 284.99,-175.06 283.85,-174.39 282.74,-173.69 281.66,-172.96 280.62,-172.2 279.61,-171.41 278.64,-170.59 277.72,-169.75 276.85,-168.89 276.03,-168.01 275.27,-167.11 274.57,-166.2 273.94,-165.28 273.38,-164.35 272.89,-163.41 272.48,-162.47 272.16,-161.53 271.92,-160.59 271.77,-159.65 271.71,-158.72 271.74,-157.8 271.87,-156.89 272.11,-155.99 272.44,-155.11 272.88,-154.25 273.41,-153.41 274.05,-152.59 274.8,-151.8 275.64,-151.04 276.58,-150.31 277.62,-149.61 278.76,-148.94 279.99,-148.31 281.3,-147.71 282.71,-147.16 284.19,-146.65 285.74,-146.18 287.36,-145.75 289.05,-145.36 290.79,-145.03 292.58,-144.74 294.42,-144.49 296.29,-144.3 298.19,-144.15 300.1,-144.05 302.03,-144 303.97,-144 305.9,-144.05"/>
<text text-anchor="middle" x="303" y="-158.3" font-family="Times,serif" font-size="14.00">线上</text>
</g>
<!-- pre -->
<g id="node5" class="node">
<title>pre</title>
<ellipse fill="none" stroke="black" cx="260" cy="-90" rx="38.19" ry="18"/>
<text text-anchor="middle" x="260" y="-86.3" font-family="Times,serif" font-size="14.00">预发布</text>
</g>
<!-- online&#45;&#45;pre -->
<g id="edge7" class="edge">
<title>online&#45;&#45;pre</title>
<path fill="none" stroke="black" d="M292.81,-144.41C285.96,-133.25 276.96,-118.6 270.12,-107.47"/>
</g>
<!-- prod -->
<g id="node6" class="node">
<title>prod</title>
<ellipse fill="none" stroke="black" cx="346" cy="-90" rx="29.5" ry="18"/>
<text text-anchor="middle" x="346" y="-86.3" font-family="Times,serif" font-size="14.00">生产</text>
</g>
<!-- online&#45;&#45;prod -->
<g id="edge8" class="edge">
<title>online&#45;&#45;prod</title>
<path fill="none" stroke="black" d="M313.19,-144.41C320.14,-133.09 329.3,-118.18 336.18,-106.99"/>
</g>
<!-- local -->
<g id="node7" class="node">
<title>local</title>
<polygon fill="none" stroke="black" points="54,-36 0,-36 0,0 54,0 54,-36"/>
<text text-anchor="middle" x="27" y="-14.3" font-family="Times,serif" font-size="14.00">本地</text>
</g>
<!-- dev&#45;&#45;local -->
<g id="edge3" class="edge">
<title>dev&#45;&#45;local</title>
<path fill="none" stroke="black" d="M55.42,-72.76C49.61,-61.78 41.95,-47.29 36.05,-36.12"/>
</g>
<!-- S1 -->
<g id="node10" class="node">
<title>S1</title>
<polygon fill="none" stroke="black" points="126,-36 72,-36 72,0 126,0 126,-36"/>
<text text-anchor="middle" x="99" y="-14.3" font-family="Times,serif" font-size="14.00">分组1</text>
</g>
<!-- test&#45;&#45;S1 -->
<g id="edge4" class="edge">
<title>test&#45;&#45;S1</title>
<path fill="none" stroke="black" d="M149.11,-73.81C138.97,-62.71 125.2,-47.65 114.66,-36.13"/>
</g>
<!-- S2 -->
<g id="node11" class="node">
<title>S2</title>
<polygon fill="none" stroke="black" points="200,-36 144,-36 144,0 200,0 200,-36"/>
<text text-anchor="middle" x="172" y="-14.3" font-family="Times,serif" font-size="14.00">分组...</text>
</g>
<!-- test&#45;&#45;S2 -->
<g id="edge5" class="edge">
<title>test&#45;&#45;S2</title>
<path fill="none" stroke="black" d="M165.22,-71.7C166.62,-60.85 168.41,-46.92 169.8,-36.1"/>
</g>
<!-- S3 -->
<g id="node12" class="node">
<title>S3</title>
<polygon fill="none" stroke="black" points="273.5,-36 218.5,-36 218.5,0 273.5,0 273.5,-36"/>
<text text-anchor="middle" x="246" y="-14.3" font-family="Times,serif" font-size="14.00">分组N</text>
</g>
<!-- test&#45;&#45;S3 -->
<g id="edge6" class="edge">
<title>test&#45;&#45;S3</title>
<path fill="none" stroke="black" d="M179.8,-74.83C193.06,-63.65 211.62,-48 225.71,-36.11"/>
</g>
<!-- A -->
<g id="node8" class="node">
<title>A</title>
<polygon fill="none" stroke="black" points="367.5,-36 308.5,-36 308.5,0 367.5,0 367.5,-36"/>
<text text-anchor="middle" x="338" y="-14.3" font-family="Times,serif" font-size="14.00">测试组</text>
</g>
<!-- prod&#45;&#45;A -->
<g id="edge9" class="edge">
<title>prod&#45;&#45;A</title>
<path fill="none" stroke="black" d="M344.02,-71.7C342.78,-60.85 341.19,-46.92 339.95,-36.1"/>
</g>
<!-- B -->
<g id="node9" class="node">
<title>B</title>
<polygon fill="none" stroke="black" points="444.5,-36 385.5,-36 385.5,0 444.5,0 444.5,-36"/>
<text text-anchor="middle" x="415" y="-14.3" font-family="Times,serif" font-size="14.00">对照组</text>
</g>
<!-- prod&#45;&#45;B -->
<g id="edge10" class="edge">
<title>prod&#45;&#45;B</title>
<path fill="none" stroke="black" d="M360.63,-74.15C371.63,-63 386.71,-47.7 398.2,-36.04"/>
</g>
</g>
</svg>
