<?xml version="1.0" encoding="UTF-8" standalone="no"?>
<!DOCTYPE svg PUBLIC "-//W3C//DTD SVG 1.1//EN"
 "http://www.w3.org/Graphics/SVG/1.1/DTD/svg11.dtd">
<!-- Generated by graphviz version 2.49.1 (20210923.0004)
 -->
<!-- Title: deps3 Pages: 1 -->
<svg width="243pt" height="260pt"
 viewBox="0.00 0.00 242.89 260.00" xmlns="http://www.w3.org/2000/svg" xmlns:xlink="http://www.w3.org/1999/xlink">
<g id="graph0" class="graph" transform="scale(1 1) rotate(0) translate(4 256)">
<title>deps3</title>
<polygon fill="white" stroke="transparent" points="-4,4 -4,-256 238.89,-256 238.89,4 -4,4"/>
<!-- d_3_0 -->
<g id="node1" class="node">
<title>d_3_0</title>
<ellipse fill="none" stroke="black" cx="34.45" cy="-18" rx="34.39" ry="18"/>
<text text-anchor="middle" x="34.45" y="-14.3" font-family="Times,serif" font-size="14.00">D(3.0)</text>
</g>
<!-- d_2_0 -->
<g id="node2" class="node">
<title>d_2_0</title>
<ellipse fill="none" stroke="red" cx="113.45" cy="-90" rx="34.39" ry="18"/>
<text text-anchor="middle" x="113.45" y="-86.3" font-family="Times,serif" font-size="14.00">D(2.0)</text>
</g>
<!-- d_1_0 -->
<g id="node3" class="node">
<title>d_1_0</title>
<ellipse fill="none" stroke="black" cx="200.45" cy="-90" rx="34.39" ry="18"/>
<text text-anchor="middle" x="200.45" y="-86.3" font-family="Times,serif" font-size="14.00">D(1.0)</text>
</g>
<!-- A -->
<g id="node4" class="node">
<title>A</title>
<ellipse fill="none" stroke="black" cx="113.45" cy="-234" rx="27" ry="18"/>
<text text-anchor="middle" x="113.45" y="-230.3" font-family="Times,serif" font-size="14.00">A</text>
</g>
<!-- B -->
<g id="node5" class="node">
<title>B</title>
<ellipse fill="none" stroke="black" cx="38.45" cy="-162" rx="27" ry="18"/>
<text text-anchor="middle" x="38.45" y="-158.3" font-family="Times,serif" font-size="14.00">B</text>
</g>
<!-- A&#45;&gt;B -->
<g id="edge1" class="edge">
<title>A&#45;&gt;B</title>
<path fill="none" stroke="black" d="M98.27,-218.83C87.6,-208.87 73.13,-195.37 61.09,-184.14"/>
<polygon fill="black" stroke="black" points="63.3,-181.41 53.6,-177.14 58.52,-186.53 63.3,-181.41"/>
</g>
<!-- E -->
<g id="node7" class="node">
<title>E</title>
<ellipse fill="none" stroke="black" cx="113.45" cy="-162" rx="27" ry="18"/>
<text text-anchor="middle" x="113.45" y="-158.3" font-family="Times,serif" font-size="14.00">E</text>
</g>
<!-- A&#45;&gt;E -->
<g id="edge4" class="edge">
<title>A&#45;&gt;E</title>
<path fill="none" stroke="black" d="M113.45,-215.7C113.45,-207.98 113.45,-198.71 113.45,-190.11"/>
<polygon fill="black" stroke="black" points="116.95,-190.1 113.45,-180.1 109.95,-190.1 116.95,-190.1"/>
</g>
<!-- F -->
<g id="node8" class="node">
<title>F</title>
<ellipse fill="none" stroke="black" cx="192.45" cy="-162" rx="27" ry="18"/>
<text text-anchor="middle" x="192.45" y="-158.3" font-family="Times,serif" font-size="14.00">F</text>
</g>
<!-- A&#45;&gt;F -->
<g id="edge6" class="edge">
<title>A&#45;&gt;F</title>
<path fill="none" stroke="black" d="M129.05,-219.17C140.52,-209.01 156.3,-195.03 169.24,-183.56"/>
<polygon fill="black" stroke="black" points="171.71,-186.05 176.87,-176.8 167.07,-180.81 171.71,-186.05"/>
</g>
<!-- C -->
<g id="node6" class="node">
<title>C</title>
<ellipse fill="none" stroke="black" cx="34.45" cy="-90" rx="27" ry="18"/>
<text text-anchor="middle" x="34.45" y="-86.3" font-family="Times,serif" font-size="14.00">C</text>
</g>
<!-- B&#45;&gt;C -->
<g id="edge2" class="edge">
<title>B&#45;&gt;C</title>
<path fill="none" stroke="black" d="M37.46,-143.7C37.02,-135.98 36.49,-126.71 36,-118.11"/>
<polygon fill="black" stroke="black" points="39.49,-117.89 35.42,-108.1 32.5,-118.29 39.49,-117.89"/>
</g>
<!-- C&#45;&gt;d_3_0 -->
<g id="edge3" class="edge">
<title>C&#45;&gt;d_3_0</title>
<path fill="none" stroke="black" d="M34.45,-71.7C34.45,-63.98 34.45,-54.71 34.45,-46.11"/>
<polygon fill="black" stroke="black" points="37.95,-46.1 34.45,-36.1 30.95,-46.1 37.95,-46.1"/>
</g>
<!-- E&#45;&gt;d_2_0 -->
<g id="edge5" class="edge">
<title>E&#45;&gt;d_2_0</title>
<path fill="none" stroke="black" d="M113.45,-143.7C113.45,-135.98 113.45,-126.71 113.45,-118.11"/>
<polygon fill="black" stroke="black" points="116.95,-118.1 113.45,-108.1 109.95,-118.1 116.95,-118.1"/>
</g>
<!-- F&#45;&gt;d_1_0 -->
<g id="edge7" class="edge">
<title>F&#45;&gt;d_1_0</title>
<path fill="none" stroke="black" d="M194.42,-143.7C195.31,-135.98 196.37,-126.71 197.35,-118.11"/>
<polygon fill="black" stroke="black" points="200.83,-118.44 198.49,-108.1 193.88,-117.64 200.83,-118.44"/>
</g>
</g>
</svg>
