<?xml version="1.0" encoding="UTF-8" standalone="no"?>
<!DOCTYPE svg PUBLIC "-//W3C//DTD SVG 1.1//EN"
 "http://www.w3.org/Graphics/SVG/1.1/DTD/svg11.dtd">
<!-- Generated by graphviz version 2.49.1 (20210923.0004)
 -->
<!-- Title: deps0 Pages: 1 -->
<svg width="148pt" height="188pt"
 viewBox="0.00 0.00 148.45 188.00" xmlns="http://www.w3.org/2000/svg" xmlns:xlink="http://www.w3.org/1999/xlink">
<g id="graph0" class="graph" transform="scale(1 1) rotate(0) translate(4 184)">
<title>deps0</title>
<polygon fill="white" stroke="transparent" points="-4,4 -4,-184 144.45,-184 144.45,4 -4,4"/>
<!-- c_2_0 -->
<g id="node1" class="node">
<title>c_2_0</title>
<ellipse fill="none" stroke="black" cx="34.45" cy="-18" rx="34.39" ry="18"/>
<text text-anchor="middle" x="34.45" y="-14.3" font-family="Times,serif" font-size="14.00">C(2.0)</text>
</g>
<!-- A -->
<g id="node2" class="node">
<title>A</title>
<ellipse fill="none" stroke="black" cx="73.45" cy="-162" rx="27" ry="18"/>
<text text-anchor="middle" x="73.45" y="-158.3" font-family="Times,serif" font-size="14.00">A</text>
</g>
<!-- B -->
<g id="node3" class="node">
<title>B</title>
<ellipse fill="none" stroke="black" cx="73.45" cy="-90" rx="27" ry="18"/>
<text text-anchor="middle" x="73.45" y="-86.3" font-family="Times,serif" font-size="14.00">B</text>
</g>
<!-- A&#45;&gt;B -->
<g id="edge1" class="edge">
<title>A&#45;&gt;B</title>
<path fill="none" stroke="black" d="M73.45,-143.7C73.45,-135.98 73.45,-126.71 73.45,-118.11"/>
<polygon fill="black" stroke="black" points="76.95,-118.1 73.45,-108.1 69.95,-118.1 76.95,-118.1"/>
</g>
<!-- B&#45;&gt;c_2_0 -->
<g id="edge2" class="edge">
<title>B&#45;&gt;c_2_0</title>
<path fill="none" stroke="black" d="M64.4,-72.76C59.74,-64.4 53.96,-54.02 48.71,-44.61"/>
<polygon fill="black" stroke="black" points="51.64,-42.67 43.71,-35.63 45.52,-46.07 51.64,-42.67"/>
</g>
<!-- D -->
<g id="node4" class="node">
<title>D</title>
<ellipse fill="none" stroke="black" cx="113.45" cy="-18" rx="27" ry="18"/>
<text text-anchor="middle" x="113.45" y="-14.3" font-family="Times,serif" font-size="14.00">D</text>
</g>
<!-- B&#45;&gt;D -->
<g id="edge3" class="edge">
<title>B&#45;&gt;D</title>
<path fill="none" stroke="black" d="M82.72,-72.76C87.62,-64.19 93.74,-53.49 99.22,-43.9"/>
<polygon fill="black" stroke="black" points="102.3,-45.57 104.22,-35.15 96.22,-42.09 102.3,-45.57"/>
</g>
</g>
</svg>
