<?xml version="1.0" encoding="UTF-8" standalone="no"?>
<!DOCTYPE svg PUBLIC "-//W3C//DTD SVG 1.1//EN"
 "http://www.w3.org/Graphics/SVG/1.1/DTD/svg11.dtd">
<!-- Generated by graphviz version 2.49.1 (20210923.0004)
 -->
<!-- Title: deps0_1 Pages: 1 -->
<svg width="220pt" height="116pt"
 viewBox="0.00 0.00 220.45 116.00" xmlns="http://www.w3.org/2000/svg" xmlns:xlink="http://www.w3.org/1999/xlink">
<g id="graph0" class="graph" transform="scale(1 1) rotate(0) translate(4 112)">
<title>deps0_1</title>
<polygon fill="white" stroke="transparent" points="-4,4 -4,-112 216.45,-112 216.45,4 -4,4"/>
<!-- c_1_0 -->
<g id="node1" class="node">
<title>c_1_0</title>
<ellipse fill="none" stroke="black" cx="34.45" cy="-18" rx="34.39" ry="18"/>
<text text-anchor="middle" x="34.45" y="-14.3" font-family="Times,serif" font-size="14.00">C(1.0)</text>
</g>
<!-- A -->
<g id="node2" class="node">
<title>A</title>
<ellipse fill="none" stroke="black" cx="113.45" cy="-90" rx="27" ry="18"/>
<text text-anchor="middle" x="113.45" y="-86.3" font-family="Times,serif" font-size="14.00">A</text>
</g>
<!-- A&#45;&gt;c_1_0 -->
<g id="edge2" class="edge">
<title>A&#45;&gt;c_1_0</title>
<path fill="none" stroke="black" d="M97.84,-75.17C86.67,-65.27 71.41,-51.75 58.67,-40.46"/>
<polygon fill="black" stroke="black" points="60.92,-37.78 51.11,-33.77 56.28,-43.02 60.92,-37.78"/>
</g>
<!-- B -->
<g id="node3" class="node">
<title>B</title>
<ellipse fill="none" stroke="black" cx="113.45" cy="-18" rx="27" ry="18"/>
<text text-anchor="middle" x="113.45" y="-14.3" font-family="Times,serif" font-size="14.00">B</text>
</g>
<!-- A&#45;&gt;B -->
<g id="edge1" class="edge">
<title>A&#45;&gt;B</title>
<path fill="none" stroke="black" d="M113.45,-71.7C113.45,-63.98 113.45,-54.71 113.45,-46.11"/>
<polygon fill="black" stroke="black" points="116.95,-46.1 113.45,-36.1 109.95,-46.1 116.95,-46.1"/>
</g>
<!-- D -->
<g id="node4" class="node">
<title>D</title>
<ellipse fill="none" stroke="black" cx="185.45" cy="-18" rx="27" ry="18"/>
<text text-anchor="middle" x="185.45" y="-14.3" font-family="Times,serif" font-size="14.00">D</text>
</g>
<!-- A&#45;&gt;D -->
<g id="edge3" class="edge">
<title>A&#45;&gt;D</title>
<path fill="none" stroke="black" d="M128.02,-74.83C138.2,-64.94 151.97,-51.55 163.48,-40.36"/>
<polygon fill="black" stroke="black" points="165.92,-42.87 170.65,-33.38 161.04,-37.85 165.92,-42.87"/>
</g>
</g>
</svg>
