<?xml version="1.0" encoding="UTF-8" standalone="no"?>
<!DOCTYPE svg PUBLIC "-//W3C//DTD SVG 1.1//EN"
 "http://www.w3.org/Graphics/SVG/1.1/DTD/svg11.dtd">
<!-- Generated by graphviz version 2.49.1 (20210923.0004)
 -->
<!-- Title: deps_tree Pages: 1 -->
<svg width="545pt" height="332pt"
 viewBox="0.00 0.00 545.35 332.00" xmlns="http://www.w3.org/2000/svg" xmlns:xlink="http://www.w3.org/1999/xlink">
<g id="graph0" class="graph" transform="scale(1 1) rotate(0) translate(4 328)">
<title>deps_tree</title>
<polygon fill="white" stroke="transparent" points="-4,4 -4,-328 541.35,-328 541.35,4 -4,4"/>
<!-- parent1 -->
<g id="node1" class="node">
<title>parent1</title>
<ellipse fill="bisque" stroke="black" cx="244" cy="-306" rx="74.19" ry="18"/>
<text text-anchor="middle" x="244" y="-302.3" font-family="Times,serif" font-size="14.00">父项目的父项目</text>
</g>
<!-- parent1_pom -->
<g id="node2" class="node">
<title>parent1_pom</title>
<text text-anchor="middle" x="362" y="-302.3" font-family="Times,serif" font-size="14.00">pom.xml</text>
</g>
<!-- parent1&#45;&gt;parent1_pom -->
<g id="edge8" class="edge">
<title>parent1&#45;&gt;parent1_pom</title>
<path fill="none" stroke="black" stroke-dasharray="5,2" d="M318.21,-306C320.86,-306 323.5,-306 326.14,-306"/>
<polygon fill="none" stroke="black" points="326.34,-309.5 336.34,-306 326.34,-302.5 326.34,-309.5"/>
</g>
<!-- parent2 -->
<g id="node3" class="node">
<title>parent2</title>
<ellipse fill="bisque" stroke="black" cx="244" cy="-234" rx="37.89" ry="18"/>
<text text-anchor="middle" x="244" y="-230.3" font-family="Times,serif" font-size="14.00">父项目</text>
</g>
<!-- parent1&#45;&gt;parent2 -->
<g id="edge1" class="edge">
<title>parent1&#45;&gt;parent2</title>
<path fill="none" stroke="black" d="M244,-287.7C244,-279.98 244,-270.71 244,-262.11"/>
<polygon fill="black" stroke="black" points="247.5,-262.1 244,-252.1 240.5,-262.1 247.5,-262.1"/>
</g>
<!-- parent2_pom -->
<g id="node4" class="node">
<title>parent2_pom</title>
<text text-anchor="middle" x="325" y="-230.3" font-family="Times,serif" font-size="14.00">pom.xml</text>
</g>
<!-- parent2&#45;&gt;parent2_pom -->
<g id="edge9" class="edge">
<title>parent2&#45;&gt;parent2_pom</title>
<path fill="none" stroke="black" stroke-dasharray="5,2" d="M281.97,-234C284.43,-234 286.89,-234 289.34,-234"/>
<polygon fill="none" stroke="black" points="289.45,-237.5 299.45,-234 289.45,-230.5 289.45,-237.5"/>
</g>
<!-- project -->
<g id="node5" class="node">
<title>project</title>
<ellipse fill="yellow" stroke="black" cx="244" cy="-162" rx="46.59" ry="18"/>
<text text-anchor="middle" x="244" y="-158.3" font-family="Times,serif" font-size="14.00">当前项目</text>
</g>
<!-- parent2&#45;&gt;project -->
<g id="edge2" class="edge">
<title>parent2&#45;&gt;project</title>
<path fill="none" stroke="black" d="M244,-215.7C244,-207.98 244,-198.71 244,-190.11"/>
<polygon fill="black" stroke="black" points="247.5,-190.1 244,-180.1 240.5,-190.1 247.5,-190.1"/>
</g>
<!-- project_pom -->
<g id="node6" class="node">
<title>project_pom</title>
<text text-anchor="middle" x="334" y="-158.3" font-family="Times,serif" font-size="14.00">pom.xml</text>
</g>
<!-- project&#45;&gt;project_pom -->
<g id="edge10" class="edge">
<title>project&#45;&gt;project_pom</title>
<path fill="none" stroke="black" stroke-dasharray="5,2" d="M291.11,-162C293.42,-162 295.74,-162 298.05,-162"/>
<polygon fill="none" stroke="black" points="298.2,-165.5 308.2,-162 298.2,-158.5 298.2,-165.5"/>
</g>
<!-- pl -->
<!-- project&#45;&gt;pl -->
<!-- deps0 -->
<g id="node7" class="node">
<title>deps0</title>
<ellipse fill="#cdc8b1" stroke="black" cx="123" cy="-90" rx="51.19" ry="18"/>
<text text-anchor="middle" x="123" y="-86.3" font-family="Times,serif" font-size="14.00">依赖项目0</text>
</g>
<!-- deps0&#45;&gt;project -->
<g id="edge3" class="edge">
<title>deps0&#45;&gt;project</title>
<path fill="none" stroke="black" d="M148.58,-105.8C166.56,-116.2 190.79,-130.22 210.33,-141.52"/>
<polygon fill="black" stroke="black" points="208.81,-144.69 219.22,-146.67 212.32,-138.63 208.81,-144.69"/>
</g>
<!-- deps1 -->
<g id="node8" class="node">
<title>deps1</title>
<ellipse fill="#cdc8b1" stroke="black" cx="244" cy="-90" rx="51.19" ry="18"/>
<text text-anchor="middle" x="244" y="-86.3" font-family="Times,serif" font-size="14.00">依赖项目1</text>
</g>
<!-- deps0&#45;&gt;deps1 -->
<!-- deps1&#45;&gt;project -->
<g id="edge4" class="edge">
<title>deps1&#45;&gt;project</title>
<path fill="none" stroke="black" d="M244,-108.1C244,-115.79 244,-125.05 244,-133.67"/>
<polygon fill="black" stroke="black" points="240.5,-133.7 244,-143.7 247.5,-133.7 240.5,-133.7"/>
</g>
<!-- deps2 -->
<g id="node9" class="node">
<title>deps2</title>
<ellipse fill="#cdc8b1" stroke="black" cx="365" cy="-90" rx="51.19" ry="18"/>
<text text-anchor="middle" x="365" y="-86.3" font-family="Times,serif" font-size="14.00">依赖项目2</text>
</g>
<!-- deps1&#45;&gt;deps2 -->
<!-- deps2&#45;&gt;project -->
<g id="edge5" class="edge">
<title>deps2&#45;&gt;project</title>
<path fill="none" stroke="black" d="M339.42,-105.8C321.44,-116.2 297.21,-130.22 277.67,-141.52"/>
<polygon fill="black" stroke="black" points="275.68,-138.63 268.78,-146.67 279.19,-144.69 275.68,-138.63"/>
</g>
<!-- deps3 -->
<g id="node10" class="node">
<title>deps3</title>
<ellipse fill="#cdc8b1" stroke="black" cx="486" cy="-90" rx="51.19" ry="18"/>
<text text-anchor="middle" x="486" y="-86.3" font-family="Times,serif" font-size="14.00">依赖项目3</text>
</g>
<!-- deps2&#45;&gt;deps3 -->
<!-- deps3&#45;&gt;project -->
<g id="edge6" class="edge">
<title>deps3&#45;&gt;project</title>
<path fill="none" stroke="black" d="M447.11,-101.87C409.44,-112.45 350.73,-129.07 300,-144 296.48,-145.04 292.84,-146.12 289.18,-147.21"/>
<polygon fill="black" stroke="black" points="288.09,-143.88 279.52,-150.12 290.11,-150.59 288.09,-143.88"/>
</g>
<!-- deps4 -->
<g id="node11" class="node">
<title>deps4</title>
<ellipse fill="#cdc8b1" stroke="black" cx="213" cy="-18" rx="51.19" ry="18"/>
<text text-anchor="middle" x="213" y="-14.3" font-family="Times,serif" font-size="14.00">依赖项目4</text>
</g>
<!-- deps4&#45;&gt;deps1 -->
<g id="edge7" class="edge">
<title>deps4&#45;&gt;deps1</title>
<path fill="none" stroke="black" d="M220.65,-36.28C224.2,-44.29 228.49,-53.98 232.42,-62.86"/>
<polygon fill="black" stroke="black" points="229.25,-64.33 236.5,-72.05 235.65,-61.49 229.25,-64.33"/>
</g>
<!-- pl&#45;&gt;deps0 -->
<!-- pl2 -->
<!-- pl&#45;&gt;pl2 -->
<!-- pl2&#45;&gt;deps4 -->
</g>
</svg>
