<?xml version="1.0" encoding="UTF-8" standalone="no"?>
<!DOCTYPE svg PUBLIC "-//W3C//DTD SVG 1.1//EN"
 "http://www.w3.org/Graphics/SVG/1.1/DTD/svg11.dtd">
<!-- Generated by graphviz version 5.0.0 (20220707.1540)
 -->
<!-- Title: Pipeline Pages: 1 -->
<svg width="488pt" height="188pt"
 viewBox="0.00 0.00 488.00 188.00" xmlns="http://www.w3.org/2000/svg" xmlns:xlink="http://www.w3.org/1999/xlink">
<g id="graph0" class="graph" transform="scale(1 1) rotate(0) translate(4 184)">
<title>Pipeline</title>
<polygon fill="white" stroke="transparent" points="-4,4 -4,-184 484,-184 484,4 -4,4"/>
<!-- coding -->
<g id="node1" class="node">
<title>coding</title>
<ellipse fill="none" stroke="black" cx="121" cy="-90" rx="29.5" ry="18"/>
<text text-anchor="middle" x="121" y="-86.3" font-family="Times,serif" font-size="14.00">编码</text>
</g>
<!-- packaging -->
<g id="node3" class="node">
<title>packaging</title>
<ellipse fill="none" stroke="black" cx="197" cy="-90" rx="29.5" ry="18"/>
<text text-anchor="middle" x="197" y="-86.3" font-family="Times,serif" font-size="14.00">打包</text>
</g>
<!-- coding&#45;&gt;packaging -->
<g id="edge10" class="edge">
<title>coding&#45;&gt;packaging</title>
<path fill="none" stroke="black" stroke-dasharray="5,2" d="M150.39,-90C152.71,-90 155.03,-90 157.34,-90"/>
<polygon fill="black" stroke="black" points="157.51,-93.5 167.51,-90 157.5,-86.5 157.51,-93.5"/>
</g>
<!-- code_repo -->
<g id="node7" class="node">
<title>code_repo</title>
<polygon fill="none" stroke="black" points="166,-36 92,-36 92,0 166,0 166,-36"/>
<text text-anchor="middle" x="129" y="-14.3" font-family="Times,serif" font-size="14.00">代码仓库</text>
</g>
<!-- coding&#45;&gt;code_repo -->
<g id="edge1" class="edge">
<title>coding&#45;&gt;code_repo</title>
<path fill="none" stroke="black" d="M122.98,-71.7C123.86,-63.98 124.92,-54.71 125.9,-46.11"/>
<polygon fill="black" stroke="black" points="129.39,-46.44 127.05,-36.1 122.43,-45.64 129.39,-46.44"/>
</g>
<!-- configuring -->
<g id="node2" class="node">
<title>configuring</title>
<ellipse fill="none" stroke="black" cx="45" cy="-90" rx="29.5" ry="18"/>
<text text-anchor="middle" x="45" y="-86.3" font-family="Times,serif" font-size="14.00">配置</text>
</g>
<!-- configuring&#45;&gt;packaging -->
<g id="edge11" class="edge">
<title>configuring&#45;&gt;packaging</title>
<path fill="none" stroke="black" stroke-dasharray="5,2" d="M59.97,-105.58C68.53,-113.33 79.93,-121.91 92,-126 116.41,-134.28 125.59,-134.28 150,-126 158.68,-123.06 167.01,-117.8 174.18,-112.2"/>
<polygon fill="black" stroke="black" points="176.64,-114.7 182.03,-105.58 172.13,-109.35 176.64,-114.7"/>
</g>
<!-- config -->
<g id="node8" class="node">
<title>config</title>
<polygon fill="none" stroke="black" points="74,-36 0,-36 0,0 74,0 74,-36"/>
<text text-anchor="middle" x="37" y="-14.3" font-family="Times,serif" font-size="14.00">配置中心</text>
</g>
<!-- configuring&#45;&gt;config -->
<g id="edge2" class="edge">
<title>configuring&#45;&gt;config</title>
<path fill="none" stroke="black" d="M43.02,-71.7C42.14,-63.98 41.08,-54.71 40.1,-46.11"/>
<polygon fill="black" stroke="black" points="43.57,-45.64 38.95,-36.1 36.61,-46.44 43.57,-45.64"/>
</g>
<!-- imaging -->
<g id="node4" class="node">
<title>imaging</title>
<ellipse fill="none" stroke="black" cx="273" cy="-90" rx="29.5" ry="18"/>
<text text-anchor="middle" x="273" y="-86.3" font-family="Times,serif" font-size="14.00">构建</text>
</g>
<!-- packaging&#45;&gt;imaging -->
<g id="edge12" class="edge">
<title>packaging&#45;&gt;imaging</title>
<path fill="none" stroke="black" stroke-dasharray="5,2" d="M226.39,-90C228.71,-90 231.03,-90 233.34,-90"/>
<polygon fill="black" stroke="black" points="233.51,-93.5 243.51,-90 233.5,-86.5 233.51,-93.5"/>
</g>
<!-- maven_repo -->
<g id="node9" class="node">
<title>maven_repo</title>
<polygon fill="none" stroke="black" points="267.5,-36 184.5,-36 184.5,0 267.5,0 267.5,-36"/>
<text text-anchor="middle" x="226" y="-14.3" font-family="Times,serif" font-size="14.00">Maven仓库</text>
</g>
<!-- packaging&#45;&gt;maven_repo -->
<g id="edge3" class="edge">
<title>packaging&#45;&gt;maven_repo</title>
<path fill="none" stroke="black" d="M203.87,-72.41C207.17,-64.45 211.2,-54.72 214.92,-45.76"/>
<polygon fill="black" stroke="black" points="218.18,-47.02 218.77,-36.45 211.71,-44.35 218.18,-47.02"/>
</g>
<!-- deploying -->
<g id="node5" class="node">
<title>deploying</title>
<ellipse fill="none" stroke="black" cx="349" cy="-90" rx="29.5" ry="18"/>
<text text-anchor="middle" x="349" y="-86.3" font-family="Times,serif" font-size="14.00">部署</text>
</g>
<!-- imaging&#45;&gt;deploying -->
<g id="edge13" class="edge">
<title>imaging&#45;&gt;deploying</title>
<path fill="none" stroke="black" stroke-dasharray="5,2" d="M302.39,-90C304.71,-90 307.03,-90 309.34,-90"/>
<polygon fill="black" stroke="black" points="309.51,-93.5 319.51,-90 309.5,-86.5 309.51,-93.5"/>
</g>
<!-- image_registry -->
<g id="node10" class="node">
<title>image_registry</title>
<polygon fill="none" stroke="black" points="388,-36 286,-36 286,0 388,0 388,-36"/>
<text text-anchor="middle" x="337" y="-14.3" font-family="Times,serif" font-size="14.00">镜像注册中心</text>
</g>
<!-- imaging&#45;&gt;image_registry -->
<g id="edge4" class="edge">
<title>imaging&#45;&gt;image_registry</title>
<path fill="none" stroke="black" d="M286.89,-73.81C294.97,-64.97 305.36,-53.61 314.58,-43.52"/>
<polygon fill="black" stroke="black" points="317.18,-45.87 321.34,-36.13 312.01,-41.15 317.18,-45.87"/>
</g>
<!-- server -->
<g id="node11" class="node">
<title>server</title>
<polygon fill="none" stroke="black" points="480,-36 406,-36 406,0 480,0 480,-36"/>
<text text-anchor="middle" x="443" y="-14.3" font-family="Times,serif" font-size="14.00">运行环境</text>
</g>
<!-- deploying&#45;&gt;server -->
<g id="edge5" class="edge">
<title>deploying&#45;&gt;server</title>
<path fill="none" stroke="black" d="M367.12,-75.5C379.7,-66.14 396.78,-53.42 411.55,-42.42"/>
<polygon fill="black" stroke="black" points="414,-44.96 419.93,-36.18 409.82,-39.35 414,-44.96"/>
</g>
<!-- env -->
<g id="node6" class="node">
<title>env</title>
<polygon fill="none" stroke="black" points="262,-180 208,-180 208,-144 262,-144 262,-180"/>
<text text-anchor="middle" x="235" y="-158.3" font-family="Times,serif" font-size="14.00">环境</text>
</g>
<!-- env&#45;&gt;configuring -->
<g id="edge8" class="edge">
<title>env&#45;&gt;configuring</title>
<path fill="none" stroke="black" stroke-dasharray="5,2" d="M207.84,-152.3C177.23,-142.33 126.12,-125.13 83,-108 81.14,-107.26 79.23,-106.48 77.31,-105.68"/>
<polygon fill="black" stroke="black" points="78.34,-102.31 67.77,-101.57 75.57,-108.74 78.34,-102.31"/>
</g>
<!-- env&#45;&gt;packaging -->
<g id="edge6" class="edge">
<title>env&#45;&gt;packaging</title>
<path fill="none" stroke="black" stroke-dasharray="5,2" d="M225.61,-143.7C221.17,-135.52 215.78,-125.6 210.89,-116.58"/>
<polygon fill="black" stroke="black" points="213.87,-114.74 206.02,-107.62 207.72,-118.08 213.87,-114.74"/>
</g>
<!-- env&#45;&gt;imaging -->
<g id="edge7" class="edge">
<title>env&#45;&gt;imaging</title>
<path fill="none" stroke="black" stroke-dasharray="5,2" d="M244.39,-143.7C248.83,-135.52 254.22,-125.6 259.11,-116.58"/>
<polygon fill="black" stroke="black" points="262.28,-118.08 263.98,-107.62 256.13,-114.74 262.28,-118.08"/>
</g>
<!-- env&#45;&gt;deploying -->
<g id="edge9" class="edge">
<title>env&#45;&gt;deploying</title>
<path fill="none" stroke="black" stroke-dasharray="5,2" d="M262.02,-144.41C279.51,-133.67 302.27,-119.69 320.12,-108.73"/>
<polygon fill="black" stroke="black" points="322.26,-111.52 328.96,-103.31 318.6,-105.56 322.26,-111.52"/>
</g>
<!-- code_repo&#45;&gt;packaging -->
<g id="edge14" class="edge">
<title>code_repo&#45;&gt;packaging</title>
<path fill="none" stroke="black" d="M145.55,-36.04C154.58,-45.33 165.85,-56.93 175.54,-66.91"/>
<polygon fill="black" stroke="black" points="173.1,-69.42 182.58,-74.15 178.12,-64.54 173.1,-69.42"/>
</g>
<!-- config&#45;&gt;server -->
<g id="edge17" class="edge">
<title>config&#45;&gt;server</title>
<path fill="none" stroke="black" d="M58.26,-36.08C67.91,-43.13 79.86,-50.38 92,-54 155.04,-72.8 324.96,-72.8 388,-54 396.82,-51.37 405.54,-46.82 413.35,-41.83"/>
<polygon fill="black" stroke="black" points="415.47,-44.62 421.74,-36.08 411.51,-38.85 415.47,-44.62"/>
</g>
<!-- maven_repo&#45;&gt;imaging -->
<g id="edge15" class="edge">
<title>maven_repo&#45;&gt;imaging</title>
<path fill="none" stroke="black" d="M237.61,-36.29C243.34,-44.83 250.35,-55.27 256.62,-64.61"/>
<polygon fill="black" stroke="black" points="253.85,-66.76 262.33,-73.12 259.67,-62.86 253.85,-66.76"/>
</g>
<!-- image_registry&#45;&gt;deploying -->
<g id="edge16" class="edge">
<title>image_registry&#45;&gt;deploying</title>
<path fill="none" stroke="black" d="M339.96,-36.28C341.29,-44.03 342.89,-53.36 344.37,-62.01"/>
<polygon fill="black" stroke="black" points="340.96,-62.79 346.1,-72.05 347.86,-61.61 340.96,-62.79"/>
</g>
</g>
</svg>
